<?xml version="1.0" encoding="iso-8859-1"?>
<!-- Generator: Adobe Illustrator 19.0.0, SVG Export Plug-In . SVG Version: 6.00 Build 0)  -->
<svg version="1.1" id="Capa_1" xmlns="http://www.w3.org/2000/svg" xmlns:xlink="http://www.w3.org/1999/xlink" x="0px" y="0px"
	 viewBox="0 0 58 58" style="enable-background:new 0 0 58 58;" xml:space="preserve">
<g>
	<g>
		<path d="M29,0C13.009,0,0,13.01,0,29s13.009,29,29,29s29-13.01,29-29S44.991,0,29,0z M29,56C14.112,56,2,43.888,2,29
			S14.112,2,29,2s27,12.112,27,27S43.888,56,29,56z"/>
		<path d="M9,27c0.256,0,0.512-0.098,0.707-0.293l6.731-6.731c0.311-0.308,0.814-0.308,1.123,0l5.463,5.463
			c1.09,1.09,2.862,1.09,3.951,0l5.463-5.463c0.31-0.308,0.814-0.308,1.123,0l5.463,5.463c1.09,1.09,2.862,1.09,3.951,0l6.731-6.731
			c0.391-0.391,0.391-1.023,0-1.414s-1.023-0.391-1.414,0l-6.731,6.731c-0.31,0.31-0.813,0.309-1.123,0l-5.463-5.463
			c-1.09-1.09-2.862-1.09-3.951,0l-5.463,5.463c-0.31,0.31-0.813,0.309-1.123,0l-5.463-5.463c-1.09-1.09-2.862-1.09-3.951,0
			l-6.731,6.731c-0.391,0.391-0.391,1.023,0,1.414C8.488,26.902,8.744,27,9,27z"/>
		<path d="M48.293,29.293l-6.731,6.731c-0.31,0.31-0.813,0.31-1.123,0l-5.463-5.463c-1.09-1.09-2.862-1.09-3.951,0l-5.463,5.463
			c-0.31,0.31-0.813,0.31-1.123,0l-5.463-5.463c-1.09-1.09-2.862-1.09-3.951,0l-6.731,6.731c-0.391,0.391-0.391,1.023,0,1.414
			C8.488,38.902,8.744,39,9,39s0.512-0.098,0.707-0.293l6.731-6.731c0.311-0.309,0.814-0.308,1.123,0l5.463,5.463
			c1.09,1.09,2.862,1.09,3.951,0l5.463-5.463c0.31-0.309,0.814-0.308,1.123,0l5.463,5.463c1.09,1.09,2.862,1.09,3.951,0l6.731-6.731
			c0.391-0.391,0.391-1.023,0-1.414S48.684,28.902,48.293,29.293z"/>
	</g>
</g>
<g>
</g>
<g>
</g>
<g>
</g>
<g>
</g>
<g>
</g>
<g>
</g>
<g>
</g>
<g>
</g>
<g>
</g>
<g>
</g>
<g>
</g>
<g>
</g>
<g>
</g>
<g>
</g>
<g>
</g>
</svg>
