<svg xmlns="http://www.w3.org/2000/svg" xmlns:xlink="http://www.w3.org/1999/xlink" version="1.1" x="0px" y="0px" viewBox="0 0 100 125" enable-background="new 0 0 100 100" xml:space="preserve"><g><g><path fill="none" d="M58.187,55.352c0.31-0.99,0.392-2.086,0.232-3.107c-0.182-1.24-0.694-2.406-1.456-3.334    c-0.732-0.902-1.72-1.553-2.731-1.941c-0.012,0.092-0.031,0.182-0.039,0.275C53.87,50.276,55.551,53.465,58.187,55.352z"/><path fill="none" d="M52.829,48.52c-0.032-0.466-0.033-0.936,0.01-1.407l0.045-0.419l0.015-0.073    c-0.624-0.097-1.24-0.109-1.816-0.025c-0.172,0.027-0.333,0.068-0.496,0.107C51.595,47.205,52.34,47.894,52.829,48.52z"/><path fill="none" d="M28.887,54.843c1.103-1.413,1.855-3.329,1.279-5.024c-0.289-0.829-0.88-1.575-1.651-1.944    c-0.768-0.373-1.684-0.285-2.424,0.187c-0.739,0.46-1.314,1.24-1.48,2.091c-0.189,0.872-0.027,1.812,0.361,2.648    c0.598,1.321,1.758,2.292,3.09,2.985C28.354,55.488,28.632,55.176,28.887,54.843z"/><path fill="none" d="M47.116,46.694l0.045,0.419c0.043,0.472,0.042,0.942,0.01,1.408c0.489-0.626,1.234-1.316,2.243-1.818    c-0.162-0.039-0.324-0.081-0.496-0.107c-0.577-0.084-1.193-0.071-1.817,0.025L47.116,46.694z"/><path fill="none" d="M54.067,53.113c0.234,0.127,0.433,0.29,0.6,0.471c-0.966-1.383-1.603-2.975-1.796-4.633    c-0.546-0.725-1.52-1.597-2.871-2.074c-1.352,0.477-2.326,1.35-2.872,2.075c-0.193,1.658-0.83,3.249-1.796,4.633    c0.167-0.181,0.366-0.344,0.601-0.471c0.825-0.492,2.095-0.496,3.078,0.17c0.37,0.24,0.711,0.554,0.988,0.939    c0.277-0.385,0.618-0.699,0.989-0.939C51.972,52.618,53.241,52.622,54.067,53.113z"/><path fill="none" d="M75.028,52.8c0.388-0.837,0.55-1.777,0.361-2.648c-0.167-0.851-0.741-1.63-1.479-2.091    c-0.741-0.472-1.656-0.56-2.424-0.187c-0.77,0.368-1.363,1.115-1.652,1.944c-0.576,1.696,0.176,3.611,1.28,5.024    c0.255,0.333,0.533,0.646,0.825,0.942C73.27,55.092,74.43,54.121,75.028,52.8z"/><path fill="none" d="M45.807,47.245c-0.008-0.093-0.027-0.183-0.039-0.275c-1.011,0.389-1.998,1.039-2.73,1.941    c-0.764,0.928-1.274,2.094-1.456,3.334c-0.16,1.021-0.078,2.116,0.232,3.107C44.449,53.464,46.13,50.276,45.807,47.245z"/><path fill="none" d="M49.398,55.732c-0.091-0.644-0.467-1.217-0.973-1.595c-0.679-0.513-1.518-0.64-2.154-0.358    c-0.646,0.269-1.021,0.852-1.007,1.335c0.012,0.516,0.31,0.882,0.537,1.041c0.238,0.17,0.415,0.165,0.41,0.176    c0.036,0.003,0.063,0.034,0.061,0.069c-0.003,0.034-0.035,0.063-0.069,0.063c0.003-0.015-0.189,0.032-0.513-0.107    c-0.314-0.134-0.746-0.512-0.882-1.189c-0.08-0.375,0.012-0.806,0.241-1.197c-0.758,0.991-1.683,1.86-2.731,2.551    c0.499,0.89,1.22,1.635,2.08,2.046c1.034,0.512,2.297,0.555,3.191,0.141c0.975-0.414,1.606-1.33,1.785-2.235    C49.358,56.223,49.365,55.975,49.398,55.732z"/><path fill="none" d="M54.954,53.971c0.228,0.39,0.32,0.821,0.24,1.196c-0.135,0.678-0.568,1.055-0.882,1.189    c-0.322,0.139-0.516,0.091-0.513,0.107c-0.035,0-0.066-0.029-0.067-0.063c-0.003-0.036,0.023-0.066,0.059-0.069    c-0.004-0.011,0.173-0.005,0.409-0.176c0.228-0.159,0.526-0.525,0.538-1.041c0.013-0.484-0.362-1.066-1.008-1.335    c-0.636-0.282-1.476-0.155-2.154,0.358c-0.506,0.378-0.882,0.951-0.973,1.595c0.034,0.243,0.041,0.49,0.025,0.739    c0.179,0.905,0.81,1.823,1.784,2.237c0.895,0.414,2.158,0.372,3.191-0.141c0.861-0.411,1.582-1.156,2.081-2.046    C56.636,55.831,55.711,54.961,54.954,53.971z"/><path d="M94.915,52.998c-0.287-1.262-1.175-2.263-2.226-2.658c-1.076-0.402-2.193-0.033-2.859,0.587    c-0.693,0.61-1.003,1.463-0.961,2.172c0.032,0.718,0.314,1.283,0.604,1.669c0.612,0.779,1.187,0.895,1.159,0.91    c0.034,0.017,0.072,0.001,0.086-0.031c0.016-0.034,0.003-0.071-0.029-0.086c0,0-0.126-0.048-0.325-0.171    c-0.199-0.123-0.494-0.338-0.767-0.713c-0.27-0.371-0.526-0.914-0.545-1.584c-0.028-0.658,0.27-1.441,0.924-2.001    c0.63-0.567,1.659-0.88,2.62-0.5c0.947,0.371,1.761,1.316,2.003,2.475c0.24,1.168-0.191,2.477-1.053,3.5    c-0.857,1.044-2.132,1.771-3.558,2.201c-1.425,0.436-3.003,0.653-4.615,0.824c-1.617,0.155-3.303,0.195-5.007-0.003    c-1.707-0.191-3.426-0.632-5.034-1.406c-0.92-0.443-1.801-1-2.599-1.666c1.332-0.771,2.528-1.842,3.177-3.314    c0.448-0.995,0.642-2.147,0.392-3.246c-0.243-1.123-0.972-2.078-1.925-2.662c-0.947-0.6-2.25-0.721-3.268-0.197    c-1.02,0.512-1.716,1.442-2.06,2.457c-0.344,1.04-0.263,2.135,0.036,3.116c0.306,0.982,0.816,1.866,1.43,2.638    c0.227,0.286,0.469,0.553,0.718,0.811c-0.163,0.071-0.326,0.142-0.491,0.205c-3.648,1.398-7.902,1.521-11.294-0.205    c-0.124-0.062-0.244-0.133-0.365-0.201c0.398-1.256,0.454-2.563,0.221-3.822c-0.254-1.382-0.88-2.673-1.761-3.668    c-0.904-1.03-2.036-1.707-3.198-2.072c0.722-3.04,3.639-5.426,6.502-5.405c1.582-0.017,3.056,0.699,4.192,1.717    c1.138,1.02,1.932,2.35,2.285,3.718c0.357,1.359,0.253,2.793-0.308,3.924c-0.55,1.155-1.506,2.04-2.566,2.433    c-1.071,0.4-2.197,0.261-3.098-0.172c-0.902-0.421-1.563-1.142-1.836-1.926c-0.278-0.773-0.188-1.574,0.027-2.192    c0.225-0.62,0.569-1.092,0.907-1.402c0.341-0.312,0.668-0.462,0.885-0.557c0.228-0.071,0.346-0.108,0.346-0.108l0.009-0.003    c0.033-0.01,0.052-0.044,0.043-0.079c-0.008-0.033-0.044-0.054-0.079-0.047c0,0-0.126,0.033-0.371,0.094    c-0.234,0.087-0.591,0.226-0.975,0.538c-0.379,0.309-0.777,0.791-1.06,1.451c-0.269,0.66-0.43,1.522-0.159,2.451    c0.48,1.829,2.959,3.501,5.607,2.659c1.276-0.423,2.425-1.411,3.12-2.735c0.724-1.339,0.897-2.99,0.512-4.576    c-0.374-1.585-1.24-3.11-2.519-4.31c-1.254-1.191-3.023-2.109-4.952-2.135c-1.935-0.046-3.859,0.781-5.3,2.123    c-0.728,0.668-1.352,1.465-1.827,2.361c-0.24,0.451-0.439,0.905-0.591,1.432c-0.055,0.164-0.095,0.315-0.129,0.461    c-0.7-0.081-1.384-0.054-2.008,0.074c-0.36,0.075-0.689,0.182-1.004,0.303c-0.315-0.12-0.645-0.228-1.004-0.303    c-0.624-0.128-1.308-0.154-2.008-0.074c-0.033-0.146-0.073-0.298-0.128-0.461c-0.153-0.527-0.351-0.98-0.592-1.432    c-0.475-0.896-1.1-1.693-1.827-2.361c-1.44-1.343-3.365-2.169-5.299-2.123c-1.93,0.026-3.698,0.944-4.953,2.135    c-1.278,1.199-2.146,2.725-2.519,4.31c-0.383,1.586-0.211,3.237,0.513,4.576c0.694,1.324,1.844,2.312,3.12,2.735    c2.649,0.841,5.128-0.83,5.608-2.659c0.27-0.929,0.11-1.791-0.159-2.451c-0.283-0.659-0.681-1.142-1.061-1.451    c-0.382-0.312-0.74-0.451-0.974-0.538c-0.244-0.061-0.371-0.094-0.371-0.094c-0.033-0.007-0.067,0.011-0.078,0.043    c-0.011,0.036,0.009,0.072,0.042,0.082l0.01,0.003c0,0,0.117,0.037,0.346,0.108c0.217,0.095,0.545,0.245,0.886,0.557    c0.338,0.31,0.681,0.782,0.906,1.402c0.216,0.618,0.306,1.419,0.028,2.192c-0.273,0.784-0.933,1.504-1.838,1.926    c-0.9,0.432-2.026,0.572-3.098,0.172c-1.06-0.393-2.015-1.278-2.565-2.433c-0.561-1.131-0.666-2.565-0.308-3.924    c0.353-1.367,1.148-2.698,2.285-3.718c1.137-1.018,2.611-1.734,4.192-1.717c2.862-0.02,5.78,2.365,6.501,5.406    c-1.162,0.366-2.294,1.042-3.198,2.072c-0.882,0.994-1.508,2.285-1.761,3.668c-0.233,1.259-0.178,2.566,0.22,3.822    c-0.121,0.068-0.241,0.139-0.365,0.201c-3.391,1.727-7.645,1.603-11.294,0.205c-0.165-0.063-0.328-0.134-0.491-0.205    c0.249-0.258,0.491-0.526,0.718-0.811c0.615-0.772,1.124-1.656,1.43-2.638c0.3-0.981,0.381-2.075,0.036-3.116    c-0.344-1.015-1.04-1.944-2.058-2.457c-1.021-0.524-2.323-0.403-3.269,0.197c-0.954,0.584-1.682,1.539-1.926,2.662    c-0.25,1.1-0.056,2.251,0.392,3.246c0.649,1.472,1.846,2.543,3.177,3.314c-0.798,0.666-1.679,1.223-2.598,1.666    c-1.608,0.774-3.328,1.215-5.034,1.406c-1.706,0.198-3.39,0.158-5.007,0.003c-1.612-0.171-3.19-0.389-4.615-0.824    c-1.425-0.43-2.701-1.157-3.558-2.201c-0.862-1.022-1.292-2.331-1.053-3.5c0.242-1.159,1.057-2.104,2.004-2.475    c0.96-0.38,1.991-0.067,2.619,0.5c0.655,0.56,0.951,1.342,0.924,2.001c-0.018,0.671-0.274,1.213-0.545,1.584    c-0.273,0.375-0.567,0.591-0.766,0.713c-0.201,0.123-0.326,0.171-0.326,0.171c-0.031,0.015-0.047,0.053-0.031,0.086    c0.016,0.032,0.054,0.048,0.088,0.031c-0.028-0.015,0.547-0.131,1.159-0.91c0.29-0.387,0.571-0.952,0.604-1.669    c0.04-0.709-0.269-1.561-0.962-2.172c-0.666-0.62-1.782-0.989-2.859-0.587c-1.05,0.395-1.937,1.397-2.225,2.658    c-0.286,1.273,0.167,2.715,1.069,3.814c0.895,1.127,2.248,1.921,3.718,2.391c1.482,0.477,3.057,0.717,4.699,0.918    c1.642,0.187,3.364,0.256,5.128,0.08c2.828-0.258,5.886-1.269,8.263-3.314c0.303,0.148,0.607,0.287,0.912,0.407    c3.855,1.539,8.402,1.783,12.228-0.075c0.097-0.047,0.19-0.102,0.285-0.152c0.541,1.06,1.361,2.008,2.446,2.592    c1.315,0.717,2.914,0.884,4.347,0.269c0.754-0.353,1.384-0.926,1.821-1.603c0.437,0.678,1.067,1.251,1.821,1.603    c1.433,0.615,3.032,0.448,4.347-0.269c1.085-0.585,1.905-1.532,2.446-2.593c0.096,0.05,0.189,0.105,0.286,0.152    c3.826,1.858,8.373,1.613,12.226,0.075c0.305-0.121,0.61-0.26,0.913-0.408c2.377,2.045,5.436,3.056,8.264,3.314    c1.762,0.176,3.487,0.107,5.127-0.08c1.641-0.201,3.217-0.442,4.697-0.918c1.47-0.47,2.824-1.264,3.72-2.391    C94.747,55.713,95.201,54.271,94.915,52.998z M24.972,52.8c-0.388-0.837-0.55-1.777-0.361-2.648    c0.166-0.851,0.741-1.63,1.48-2.091c0.74-0.472,1.656-0.56,2.424-0.187c0.77,0.368,1.362,1.115,1.651,1.944    c0.577,1.696-0.176,3.611-1.279,5.024c-0.255,0.333-0.533,0.646-0.825,0.943C26.73,55.092,25.57,54.121,24.972,52.8z     M56.962,48.911c0.762,0.928,1.274,2.094,1.456,3.334c0.16,1.021,0.079,2.116-0.232,3.107c-2.636-1.887-4.317-5.075-3.994-8.107    c0.008-0.093,0.027-0.183,0.039-0.275C55.243,47.358,56.23,48.009,56.962,48.911z M50,54.223    c-0.277-0.385-0.618-0.699-0.988-0.939c-0.983-0.666-2.253-0.662-3.078-0.17c-0.234,0.127-0.433,0.29-0.601,0.471    c0.966-1.383,1.603-2.975,1.796-4.633c0.546-0.726,1.519-1.598,2.872-2.075c1.351,0.477,2.325,1.349,2.871,2.074    c0.193,1.658,0.83,3.25,1.796,4.633c-0.167-0.181-0.366-0.344-0.6-0.471c-0.826-0.492-2.096-0.496-3.078,0.17    C50.618,53.523,50.276,53.837,50,54.223z M51.083,46.595c0.577-0.084,1.193-0.071,1.816,0.025l-0.015,0.073l-0.045,0.419    c-0.043,0.471-0.041,0.941-0.01,1.407c-0.489-0.626-1.234-1.316-2.242-1.818C50.75,46.663,50.911,46.622,51.083,46.595z     M48.918,46.595c0.172,0.027,0.333,0.068,0.496,0.107c-1.009,0.502-1.753,1.192-2.243,1.818c0.032-0.466,0.033-0.936-0.01-1.408    l-0.045-0.419l-0.015-0.073C47.725,46.524,48.341,46.511,48.918,46.595z M41.581,52.245c0.182-1.24,0.692-2.406,1.456-3.334    c0.732-0.902,1.719-1.552,2.73-1.941c0.012,0.092,0.031,0.182,0.039,0.275c0.324,3.031-1.358,6.219-3.993,8.107    C41.503,54.361,41.422,53.266,41.581,52.245z M47.588,58.708c-0.895,0.414-2.157,0.372-3.191-0.141    c-0.86-0.411-1.581-1.156-2.08-2.046c1.048-0.691,1.973-1.56,2.731-2.551c-0.229,0.391-0.321,0.821-0.241,1.197    c0.136,0.678,0.568,1.055,0.882,1.189c0.323,0.139,0.516,0.091,0.513,0.107c0.034,0,0.066-0.029,0.069-0.063    c0.002-0.036-0.025-0.066-0.061-0.069c0.005-0.011-0.172-0.005-0.41-0.176c-0.226-0.159-0.525-0.525-0.537-1.041    c-0.014-0.484,0.361-1.066,1.007-1.335c0.636-0.282,1.475-0.155,2.154,0.358c0.506,0.378,0.883,0.951,0.973,1.595    c-0.034,0.244-0.041,0.491-0.025,0.741C49.193,57.377,48.563,58.294,47.588,58.708z M55.602,58.567    c-1.033,0.512-2.296,0.555-3.191,0.141c-0.975-0.414-1.605-1.332-1.784-2.237c0.016-0.249,0.009-0.496-0.025-0.739    c0.091-0.644,0.467-1.217,0.973-1.595c0.678-0.513,1.518-0.64,2.154-0.358c0.647,0.269,1.022,0.852,1.008,1.335    c-0.013,0.516-0.31,0.882-0.538,1.041c-0.236,0.17-0.414,0.165-0.409,0.176c-0.036,0.003-0.062,0.034-0.059,0.069    c0.001,0.034,0.033,0.063,0.067,0.063c-0.003-0.015,0.19,0.032,0.513-0.107c0.313-0.134,0.747-0.512,0.882-1.189    c0.081-0.375-0.011-0.806-0.24-1.196c0.757,0.99,1.682,1.86,2.73,2.55C57.185,57.411,56.464,58.156,55.602,58.567z M71.114,54.843    c-1.104-1.413-1.855-3.329-1.28-5.024c0.288-0.829,0.881-1.575,1.652-1.944c0.768-0.373,1.683-0.285,2.424,0.187    c0.739,0.46,1.312,1.24,1.479,2.091c0.189,0.872,0.027,1.812-0.361,2.648c-0.599,1.321-1.758,2.292-3.09,2.985    C71.646,55.488,71.369,55.176,71.114,54.843z"/></g></g><text x="0" y="115" fill="#000000" font-size="5px" font-weight="bold" font-family="'Helvetica Neue', Helvetica, Arial-Unicode, Arial, Sans-serif">Created by Valeriy</text><text x="0" y="120" fill="#000000" font-size="5px" font-weight="bold" font-family="'Helvetica Neue', Helvetica, Arial-Unicode, Arial, Sans-serif">from the Noun Project</text></svg>