<svg xmlns="http://www.w3.org/2000/svg" viewBox="0 0 64 80" x="0px" y="0px"><title>Artboard 25</title><g><g data-name="Group"><path d="M32.95508,28.52637a.99942.99942,0,0,1-1-1V17.30273H25.38477a1,1,0,0,1,0-2h7.57031a.99942.99942,0,0,1,1,1V27.52637A.99942.99942,0,0,1,32.95508,28.52637Z"/><path d="M32.95508,54.88672H3a.99942.99942,0,0,1-1-1v-37.584a.99942.99942,0,0,1,1-1h7.57031a1,1,0,0,1,0,2H4v35.584H31.95508V33.833a1,1,0,0,1,2,0V53.88672A.99942.99942,0,0,1,32.95508,54.88672Z"/><path d="M28.92383,31.5957a.99942.99942,0,0,1-1-1V21.73145H25.12891a1,1,0,0,1,0-2h3.79492a.99942.99942,0,0,1,1,1V30.5957A.99942.99942,0,0,1,28.92383,31.5957Z"/><path d="M22.168,50.458H7.03125a.99942.99942,0,0,1-1-1V20.73145a.99942.99942,0,0,1,1-1h3.79492a1,1,0,0,1,0,2H8.03125V48.458H21.877l6.04688-3.84863V37.82324a1,1,0,0,1,2,0v7.335a1.001,1.001,0,0,1-.46289.84375l-6.75586,4.2998A1.00406,1.00406,0,0,1,22.168,50.458Z"/><g data-name="Group"><path d="M22.168,50.458a.99942.99942,0,0,1-1-1V45.1582a.99942.99942,0,0,1,1-1h6.75586a1,1,0,0,1,0,2H23.168V49.458A.99942.99942,0,0,1,22.168,50.458Z"/></g><g data-name="Group"><rect x="17.25488" y="26.19238" width="9.0957" height="2"/></g><g data-name="Group"><rect x="17.25488" y="34.84082" width="5.17285" height="2"/></g><g data-name="Group"><path d="M11.57129,30.13867a.99809.99809,0,0,1-.67969-.2666l-2.03906-1.8916,1.36035-1.46582,1.31543,1.2207L14.042,25.10156l1.44727,1.38086L12.29492,29.8291A.99641.99641,0,0,1,11.57129,30.13867Z"/></g><g data-name="Group"><path d="M11.57129,38.76074a1.00325,1.00325,0,0,1-.708-.293l-2.10449-2.1084,1.415-1.41309,1.38086,1.38281,2.4873-2.60547,1.44727,1.38086-3.19434,3.34668a.99976.99976,0,0,1-.71191.30957Z"/></g><g data-name="Group"><path d="M22.43164,23.02637h-8.9082a4.7197,4.7197,0,0,1-.0918-9.42871v-1a4.6379,4.6379,0,0,1,4.5459-4.71484,4.6379,4.6379,0,0,1,4.5459,4.71484v1a4.7197,4.7197,0,0,1-.0918,9.42871Zm-8.9082-7.42969a2.72045,2.72045,0,0,0,0,5.42969h8.9082a2.72045,2.72045,0,0,0,0-5.42969h-.9082a.99942.99942,0,0,1-1-1v-1.999a2.63706,2.63706,0,0,0-2.5459-2.71484,2.63706,2.63706,0,0,0-2.5459,2.71484v1.999a.99942.99942,0,0,1-1,1Z"/></g><g data-name="Group"><g data-name="Group"><path d="M55.51465,54.3125H41.918a1.33369,1.33369,0,0,1-1.3291-1.335l-.00781-12.41113c0-1.13184,1.26074-1.28027,2.55469-1.37012a6.90874,6.90874,0,0,0,2.81641-2.88574c.20313-.43262.46484-1.124.74219-1.85645.91211-2.41016,1.31738-3.35352,1.96094-3.69629A2.6022,2.6022,0,0,1,50.02246,30.46c.03223.002.10059.01367.13867.02051l.01367.002a3.00948,3.00948,0,0,1,2.31348,2.36719,9.36165,9.36165,0,0,1-.27148,5.43164q-.17432.47168-.373.9043c2.59766-.002,7.26367.00684,7.26367.00684a2.79236,2.79236,0,0,1,2.88477,2.46191,2.50441,2.50441,0,0,1-.64258,1.86719,2.84709,2.84709,0,0,1-.69824.56836,2.49334,2.49334,0,0,1,.22461,1.21777,2.62518,2.62518,0,0,1-1.51953,2.15332,2.49029,2.49029,0,0,1,.17969,1.11719,2.59625,2.59625,0,0,1-1.35254,2.06348,2.48881,2.48881,0,0,1,.21875,1.20508A2.79292,2.79292,0,0,1,55.51465,54.3125Zm-12.92578-2H55.51465c.4541,0,.87109-.28027.8916-.60059a.5148.5148,0,0,0-.15137-.39941.93028.93028,0,0,0-.6748-.26953,1,1,0,0,1,0-2h1.06836c.4541,0,.87109-.28027.8916-.60059a.5139.5139,0,0,0-.15039-.39941.93259.93259,0,0,0-.67578-.26953,1,1,0,0,1,0-2H57.9873c.4541,0,.87207-.28027.89258-.60059a.51736.51736,0,0,0-.15137-.39941.93192.93192,0,0,0-.6748-.26953,1,1,0,0,1,0-2H59.1709a1.005,1.005,0,0,0,.68359-.31152.50943.50943,0,0,0,.14355-.3877l-.001-.01172c-.02051-.32031-.4375-.60059-.8916-.60059-.00293,0-7.00488-.01367-8.625-.00293h-.00781a1.18229,1.18229,0,0,1-.99609-1.81641,9.51132,9.51132,0,0,0,.86426-1.78418,7.33907,7.33907,0,0,0,.21094-4.23926,1.20718,1.20718,0,0,0-.65234-.88672v-.001c-.02832-.00293-.05664-.00684-.08008-.01074-.002.00391-.05469.00977-.124.03223a22.227,22.227,0,0,0-1.13086,2.67871c-.291.76953-.56543,1.49609-.80273,2.001a8.98986,8.98986,0,0,1-3.82812,3.88281,1.00995,1.00995,0,0,1-.42969.12988c-.41895.02734-.71387.05762-.92285.084ZM49.748,32.41016m.28906-1.9375a.96366.96366,0,0,1,.11914.00684A.79361.79361,0,0,0,50.03711,30.47266Z"/></g><g data-name="Group"><path d="M40.50488,55H38.34277a2.15211,2.15211,0,0,1-2.07617-2.21582V40.71191a2.15211,2.15211,0,0,1,2.07617-2.21582h2.16211a2.12679,2.12679,0,0,1,2.07617,2.21582V52.78418A2.15211,2.15211,0,0,1,40.50488,55ZM38.34277,40.49609a.31.31,0,0,0-.07617.21582V52.78418a.26651.26651,0,0,0,.08984.21875L40.50488,53a.31.31,0,0,0,.07617-.21582V40.71191a.26907.26907,0,0,0-.0791-.21582Zm2.16211,0h0Z"/></g></g><g data-name="Group"><path d="M25.91895,39.0791a1,1,0,0,1-.97461-1.22363l1.02734-4.46875a1.00989,1.00989,0,0,1,.2627-.47949l14.623-14.80664a1.00447,1.00447,0,0,1,.71191-.29687h.00391a1.00093,1.00093,0,0,1,.71289.30273L45.377,21.2832a1.001,1.001,0,0,1-.00488,1.40039L30.749,37.49023a1.00489,1.00489,0,0,1-.41211.251l-4.11816,1.292A.989.989,0,0,1,25.91895,39.0791Zm1.93848-4.96777-.57324,2.49121L29.5,35.90723,43.25977,21.97559l-1.69531-1.74316Z"/></g></g></g><text x="0" y="79" fill="#000000" font-size="5px" font-weight="bold" font-family="'Helvetica Neue', Helvetica, Arial-Unicode, Arial, Sans-serif">Created by Shocho</text><text x="0" y="84" fill="#000000" font-size="5px" font-weight="bold" font-family="'Helvetica Neue', Helvetica, Arial-Unicode, Arial, Sans-serif">from the Noun Project</text></svg>