<svg xmlns="http://www.w3.org/2000/svg" viewBox="0 0 64 80" x="0px" y="0px"><title>glass-cleaning-housework-miscellaneous-glass cleaning</title><g data-name="Layer 12"><path d="M24,14a3,3,0,1,0-3-3A3,3,0,0,0,24,14Zm0-4a1,1,0,1,1-1,1A1,1,0,0,1,24,10Z"/><path d="M42,13a5,5,0,1,0-5-5A5.006,5.006,0,0,0,42,13Zm0-8a3,3,0,1,1-3,3A3,3,0,0,1,42,5Z"/><path d="M22,46a3,3,0,0,1-3-3H17a2,2,0,1,1-2-2v-.08A7.026,7.026,0,0,0,16,41V39a5,5,0,0,1,0-10V27A6.993,6.993,0,0,0,12.4,39.989a3.988,3.988,0,1,0,5.46,5.8A5,5,0,0,0,27,43H25A3,3,0,0,1,22,46Z"/><path d="M56,34a5.006,5.006,0,0,0-5-5v2a3,3,0,0,1,0,6v2a2,2,0,1,1-2,2H47a3,3,0,0,1-6,0H39a5,5,0,0,0,9.145,2.793,3.994,3.994,0,1,0,5.648-5.648A5,5,0,0,0,56,34Z"/><path d="M12,26a3,3,0,1,0-3-3A3,3,0,0,0,12,26Zm0-4a1,1,0,1,1-1,1A1,1,0,0,1,12,22Z"/><path d="M5,37a4,4,0,1,0,4,4A4,4,0,0,0,5,37Zm0,6a2,2,0,1,1,2-2A2,2,0,0,1,5,43Z"/><path d="M51,27a3,3,0,1,0-3-3A3,3,0,0,0,51,27Zm0-4a1,1,0,1,1-1,1A1,1,0,0,1,51,23Z"/><path d="M59,16a4,4,0,1,0,4,4A4,4,0,0,0,59,16Zm0,6a2,2,0,1,1,2-2A2,2,0,0,1,59,22Z"/><path d="M38.414,37H45a1,1,0,0,0,1-1V26a1,1,0,0,0-1-1H19a1,1,0,0,0-1,1V36a1,1,0,0,0,1,1h6.586L29,40.414V58a3,3,0,0,0,6,0V40.414ZM31,41h2V55.184a2.809,2.809,0,0,0-2,0Zm13-6H24V31H44Zm0-8v2H20V27ZM20,31h2v4H20Zm15.586,6-2,2H30.414l-2-2ZM32,59a1,1,0,1,1,1-1A1,1,0,0,1,32,59Z"/><path d="M22,18a3,3,0,0,1,3,3h2a5,5,0,0,1,10,0h2a3,3,0,0,1,6,0h2a4.978,4.978,0,0,0-8.792-3.221,6.989,6.989,0,0,0-12.416,0A4.978,4.978,0,0,0,17,21h2A3,3,0,0,1,22,18Z"/><rect x="38" y="47.586" width="2" height="2.828" transform="translate(-23.225 41.929) rotate(-45)"/><rect x="42" y="51.586" width="2" height="2.828" transform="translate(-24.882 45.929) rotate(-45)"/><rect x="41.586" y="48" width="2.828" height="2" transform="translate(-22.054 44.757) rotate(-45)"/><rect x="37.586" y="52" width="2.828" height="2" transform="translate(-26.054 43.101) rotate(-45)"/></g><text x="0" y="79" fill="#000000" font-size="5px" font-weight="bold" font-family="'Helvetica Neue', Helvetica, Arial-Unicode, Arial, Sans-serif">Created by Surangkana Jomjunyong</text><text x="0" y="84" fill="#000000" font-size="5px" font-weight="bold" font-family="'Helvetica Neue', Helvetica, Arial-Unicode, Arial, Sans-serif">from the Noun Project</text></svg>