<svg xmlns="http://www.w3.org/2000/svg" xmlns:xlink="http://www.w3.org/1999/xlink" version="1.1" x="0px" y="0px" viewBox="0 0 128 160" style="enable-background:new 0 0 128 128;" xml:space="preserve"><g><circle cx="105" cy="10" r="3"/><circle cx="115" cy="10" r="3"/><path d="M120,1H8C3.6,1,0,4.6,0,9v110c0,4.4,3.6,8,8,8h112c4.4,0,8-3.6,8-8V9C128,4.6,124.4,1,120,1z M124,119c0,2.2-1.8,4-4,4H8   c-2.2,0-4-1.8-4-4V19h120V119z M124,15H4V9c0-2.2,1.8-4,4-4h112c2.2,0,4,1.8,4,4V15z"/><path d="M14,79h26c1.1,0,2-0.9,2-2s-0.9-2-2-2H14c-1.1,0-2,0.9-2,2S12.9,79,14,79z"/><path d="M51,101c0-1.1-0.9-2-2-2H21c-1.1,0-2,0.9-2,2s0.9,2,2,2h28C50.1,103,51,102.1,51,101z"/><path d="M14,31h30c1.1,0,2-0.9,2-2s-0.9-2-2-2H14c-1.1,0-2,0.9-2,2S12.9,31,14,31z"/><path d="M75,31h39c1.1,0,2-0.9,2-2s-0.9-2-2-2H75c-1.1,0-2,0.9-2,2S73.9,31,75,31z"/><path d="M52,31h15c1.1,0,2-0.9,2-2s-0.9-2-2-2H52c-1.1,0-2,0.9-2,2S50.9,31,52,31z"/><path d="M14,55h30c1.1,0,2-0.9,2-2s-0.9-2-2-2H14c-1.1,0-2,0.9-2,2S12.9,55,14,55z"/><path d="M114,51H52c-1.1,0-2,0.9-2,2s0.9,2,2,2h62c1.1,0,2-0.9,2-2S115.1,51,114,51z"/><path d="M46,77c0,1.1,0.9,2,2,2h41c1.1,0,2-0.9,2-2s-0.9-2-2-2H48C46.9,75,46,75.9,46,77z"/><path d="M108,43c1.1,0,2-0.9,2-2s-0.9-2-2-2H98c-1.1,0-2,0.9-2,2s0.9,2,2,2H108z"/><path d="M61,41c0-1.1-0.9-2-2-2H20c-1.1,0-2,0.9-2,2s0.9,2,2,2h39C60.1,43,61,42.1,61,41z"/><path d="M90,43c1.1,0,2-0.9,2-2s-0.9-2-2-2H67c-1.1,0-2,0.9-2,2s0.9,2,2,2H90z"/><path d="M114,63h-13c-1.1,0-2,0.9-2,2s0.9,2,2,2h13c1.1,0,2-0.9,2-2S115.1,63,114,63z"/><path d="M93,67c1.1,0,2-0.9,2-2s-0.9-2-2-2h-6c-1.1,0-2,0.9-2,2s0.9,2,2,2H93z"/><path d="M79,67c1.1,0,2-0.9,2-2s-0.9-2-2-2h-8c-1.1,0-2,0.9-2,2s0.9,2,2,2H79z"/><path d="M63,67c1.1,0,2-0.9,2-2s-0.9-2-2-2h-1c-1.1,0-2,0.9-2,2s0.9,2,2,2H63z"/><path d="M54,63H30c-1.1,0-2,0.9-2,2s0.9,2,2,2h24c1.1,0,2-0.9,2-2S55.1,63,54,63z"/><path d="M114,99H93c-1.1,0-2,0.9-2,2s0.9,2,2,2h21c1.1,0,2-0.9,2-2S115.1,99,114,99z"/><path d="M67,103h8c1.1,0,2-0.9,2-2s-0.9-2-2-2h-8c-1.1,0-2,0.9-2,2S65.9,103,67,103z"/><path d="M14,91h25c1.1,0,2-0.9,2-2s-0.9-2-2-2H14c-1.1,0-2,0.9-2,2S12.9,91,14,91z"/><path d="M53,87h-6c-1.1,0-2,0.9-2,2s0.9,2,2,2h6c1.1,0,2-0.9,2-2S54.1,87,53,87z"/><path d="M71,89c0-1.1-0.9-2-2-2h-8c-1.1,0-2,0.9-2,2s0.9,2,2,2h8C70.1,91,71,90.1,71,89z"/><path d="M78,87h-1c-1.1,0-2,0.9-2,2s0.9,2,2,2h1c1.1,0,2-0.9,2-2S79.1,87,78,87z"/><path d="M114,87H86c-1.1,0-2,0.9-2,2s0.9,2,2,2h28c1.1,0,2-0.9,2-2S115.1,87,114,87z"/><path d="M14,115h25c1.1,0,2-0.9,2-2s-0.9-2-2-2H14c-1.1,0-2,0.9-2,2S12.9,115,14,115z"/><path d="M53,111h-6c-1.1,0-2,0.9-2,2s0.9,2,2,2h6c1.1,0,2-0.9,2-2S54.1,111,53,111z"/><path d="M78,111H61c-1.1,0-2,0.9-2,2s0.9,2,2,2h17c1.1,0,2-0.9,2-2S79.1,111,78,111z"/><path d="M114,111H86c-1.1,0-2,0.9-2,2s0.9,2,2,2h28c1.1,0,2-0.9,2-2S115.1,111,114,111z"/></g><text x="0" y="143" fill="#000000" font-size="5px" font-weight="bold" font-family="'Helvetica Neue', Helvetica, Arial-Unicode, Arial, Sans-serif">Created by priyanka</text><text x="0" y="148" fill="#000000" font-size="5px" font-weight="bold" font-family="'Helvetica Neue', Helvetica, Arial-Unicode, Arial, Sans-serif">from the Noun Project</text></svg>