<svg xmlns="http://www.w3.org/2000/svg" xmlns:xlink="http://www.w3.org/1999/xlink" version="1.1" x="0px" y="0px" viewBox="0 0 100 125" style="enable-background:new 0 0 100 100;" xml:space="preserve"><g><path d="M64.6513672,48.1899414h-6.5761719c0.2558594-0.8125,0.3867188-1.6630859,0.3867188-2.5302734   c0-4.6660156-3.7958984-8.4619141-8.4619141-8.4619141s-8.4619141,3.7958984-8.4619141,8.4619141   c0,0.8671875,0.1313477,1.7182617,0.387207,2.5302734h-6.5766602c-0.8286133,0-1.5,0.6713867-1.5,1.5   s0.6713867,1.4995117,1.5,1.4995117h8.9819336c0.5615234,0,1.0761719-0.3129883,1.3334961-0.8125   c0.2573242-0.4990234,0.2138672-1.1000977-0.1118164-1.5576172c-0.6635742-0.9306641-1.0141602-2.0234375-1.0141602-3.159668   c0-3.0117188,2.4501953-5.4619141,5.4619141-5.4619141s5.4619141,2.4501953,5.4619141,5.4619141   c0,1.1362305-0.3505859,2.2290039-1.0136719,3.1601562c-0.3261719,0.4575195-0.3691406,1.0585938-0.1113281,1.5576172   c0.2568359,0.4990234,0.7714844,0.8120117,1.3330078,0.8120117h8.9814453c0.828125,0,1.5-0.6708984,1.5-1.4995117   S65.4794922,48.1899414,64.6513672,48.1899414z"/><path d="M64.3134766,55.8027344H35.3486328c-0.8286133,0-1.5,0.671875-1.5,1.5s0.6713867,1.5,1.5,1.5h28.9648438   c0.828125,0,1.5-0.671875,1.5-1.5S65.1416016,55.8027344,64.3134766,55.8027344z"/><path d="M50,15.0795898c-19.2553711,0-34.9204102,15.6650391-34.9204102,34.9204102   c0,19.2558594,15.6650391,34.9208984,34.9204102,34.9208984c19.2558594,0,34.9208984-15.6650391,34.9208984-34.9208984   C84.9208984,30.7446289,69.2558594,15.0795898,50,15.0795898z M50,81.9208984   c-17.6010742,0-31.9204102-14.3193359-31.9204102-31.9208984c0-17.6010742,14.3193359-31.9204102,31.9204102-31.9204102   c17.6015625,0,31.9208984,14.3193359,31.9208984,31.9204102C81.9208984,67.6015625,67.6015625,81.9208984,50,81.9208984z"/></g><text x="0" y="115" fill="#000000" font-size="5px" font-weight="bold" font-family="'Helvetica Neue', Helvetica, Arial-Unicode, Arial, Sans-serif">Created by Artem  Kovyazin</text><text x="0" y="120" fill="#000000" font-size="5px" font-weight="bold" font-family="'Helvetica Neue', Helvetica, Arial-Unicode, Arial, Sans-serif">from the Noun Project</text></svg>