<?xml version="1.0" encoding="utf-8"?>
<!-- Generator: Adobe Illustrator 22.1.0, SVG Export Plug-In . SVG Version: 6.00 Build 0)  -->
<svg version="1.1" id="Layer_1" xmlns="http://www.w3.org/2000/svg" xmlns:xlink="http://www.w3.org/1999/xlink" x="0px" y="0px"
	 viewBox="0 0 100 125" style="enable-background:new 0 0 100 125;" xml:space="preserve">
<g>
	<g>
		<path id="water" d="M29.5,77.6c0,0,0,0.4-1,10.9c-1,10.9,0,0,0.3-5.7c0.4-6.9,2.9-13.5,4.8-20.3c-1.5-1.6-3.3-2.9-5.3-4.2
			c-0.7,0.9-1.4,1.8-1.4,1.8s-3.7,4.1-6.9,10.1c-0.6,1.1-1.3,3.7-2.9,7.4c-0.7,1.6-1.3,2.9-1.7,3.8c-0.9,2.2-2.3,5.8-2.3,10.5
			c0,3.8,0,6.9,2,8.6c1.8,1.5,3.1,0.3,12.4,0.4c3.6,0,4.9,0.2,5.5-0.7c1.4-2.1-2.7-7.3-3.9-8.7L29.5,77.6z"/>
		<path id="jar" d="M90.8,22.9C89.5,17,78.1,6.3,78.1,6.3c-2,0.3,0,5,0,5l-1,0.6c-2.2,0.8-19.9,8.3-27.6,12.4
			c-7.8,4.1-11.9,15.4-11.9,15.4s-3.1,2.7-6.6,2.8c-3.4,0.2-1.9,3.9-1.9,3.9s2.2,2.3,3.1,4.7c1.1,2.5-2.3,2.6-2.3,2.6
			c-3.3-0.4-3,1.4-3,1.4c0,1.9,1.9,3.9,1.9,3.9c0,0.1,0,0.2,0,0.3c0,0,0,0,0.1,0c1.8,1.1,3.4,2.3,4.9,3.7c0-0.1,0.1-0.2,0.1-0.3
			c1.3,0.9,2.2,1.1,2.7,1.4c-0.4-4-4.3-7-4.3-7c2.9,1.3,4.7,4.5,5.5,6.4c0.6-5.7,2.8-6.4,2.8-6.4s2.2-0.9,8.4-2.3
			c6.3-1.2,12-4.1,15.4-6.1c3.2-1.9,12-12.6,12-12.6s6.1-6.9,7.7-9.7c1.8-2.8,3.4-3.5,3.4-3.5C91.3,25.1,90.8,22.9,90.8,22.9z
			 M34.1,48.1h-0.4L33.2,45l2.8-0.7L34.1,48.1z"/>
	</g>
</g>
</svg>
