<svg xmlns="http://www.w3.org/2000/svg" xmlns:xlink="http://www.w3.org/1999/xlink" version="1.1" x="0px" y="0px" viewBox="0 0 100 125" style="enable-background:new 0 0 100 100;" xml:space="preserve"><g><g><g><g><path d="M45.0192,12.77603c-0.21205,0-0.42639-0.04814-0.62926-0.149c-0.6946-0.34787-0.97656-1.19377-0.62926-1.88951      L48.7409,0.7782c0.3473-0.69632,1.19205-0.97599,1.89008-0.62984c0.6946,0.34787,0.97656,1.19377,0.62926,1.88951      l-4.98023,9.95932C46.03358,12.49062,45.53613,12.77603,45.0192,12.77603z"/><path d="M54.9808,12.77603c-0.51693,0-1.01439-0.2854-1.26082-0.77884L48.7409,2.03787      c-0.3473-0.69574-0.06533-1.54164,0.63041-1.88951c0.6946-0.34615,1.54164-0.06648,1.88894,0.62984l4.97908,9.95932      c0.3473,0.69574,0.06533,1.54164-0.63041,1.88951C55.40719,12.72789,55.19285,12.77603,54.9808,12.77603z"/></g><g><path d="M50.00172,100c-0.51694,0-1.01439-0.2854-1.26082-0.77884l-4.98023-9.95932      c-0.3473-0.69574-0.06533-1.54163,0.62926-1.88951c0.69689-0.34615,1.54279-0.06647,1.89008,0.62984l4.98023,9.95932      c0.3473,0.69574,0.06533,1.54163-0.62926,1.88951C50.4281,99.95186,50.21376,100,50.00172,100z"/><path d="M49.99943,100c-0.21205,0-0.42639-0.04814-0.62812-0.149c-0.69574-0.34788-0.97771-1.19377-0.63041-1.88951      l4.97908-9.95932c0.3473-0.69631,1.19663-0.97598,1.88894-0.62984c0.69574,0.34788,0.97771,1.19377,0.63041,1.88951      l-4.97908,9.95932C51.01381,99.7146,50.51636,100,49.99943,100z"/></g></g><g><g><path d="M11.36681,56.38773c-0.21205,0-0.42639-0.04814-0.62812-0.14901l-9.95932-4.97908      c-0.69574-0.34787-0.97771-1.19377-0.63041-1.88951c0.34844-0.69574,1.19434-0.97599,1.88893-0.62984l9.95932,4.97908      c0.69574,0.34787,0.97771,1.19377,0.63041,1.88951C12.3812,56.10232,11.88375,56.38773,11.36681,56.38773z"/><path d="M1.40979,51.40864c-0.51694,0-1.01439-0.2854-1.26082-0.77884c-0.3473-0.69574-0.06533-1.54164,0.63041-1.88951      l9.95932-4.97966c0.6923-0.3473,1.54164-0.06591,1.88894,0.62984s0.06533,1.54164-0.63041,1.88951L2.0379,51.25964      C1.83617,51.3605,1.62183,51.40864,1.40979,51.40864z"/></g><g><path d="M88.63319,56.38773c-0.51694,0-1.01438-0.2854-1.26082-0.77884c-0.3473-0.69574-0.06533-1.54163,0.63041-1.88951      l9.95932-4.97908c0.69345-0.34615,1.54163-0.06591,1.88893,0.62984c0.3473,0.69574,0.06534,1.54163-0.63041,1.88951      l-9.95931,4.97908C89.05957,56.33958,88.84524,56.38773,88.63319,56.38773z"/><path d="M98.59021,51.40864c-0.21204,0-0.42638-0.04814-0.62811-0.14901l-9.95932-4.97966      c-0.69574-0.34787-0.97771-1.19376-0.63041-1.88951s1.19549-0.97713,1.88894-0.62984l9.95931,4.97966      c0.69575,0.34787,0.97771,1.19376,0.63041,1.88951C99.6046,51.12324,99.10715,51.40864,98.59021,51.40864z"/></g></g></g><g><g><g><path d="M19.16211,27.61242c-0.59029,0-1.13932-0.37309-1.33647-0.96338l-3.52112-10.56336      c-0.24529-0.73758,0.15359-1.53533,0.8906-1.78119c0.73701-0.24872,1.53591,0.15244,1.78234,0.8906l3.52112,10.56336      c0.24529,0.73758-0.15359,1.53533-0.89059,1.78119C19.46012,27.58892,19.30997,27.61242,19.16211,27.61242z"/><path d="M26.20435,20.57018c-0.14786,0-0.29801-0.0235-0.44587-0.07278l-10.56336-3.52112      c-0.73701-0.24586-1.13588-1.04361-0.8906-1.78119c0.24643-0.73758,1.04419-1.13703,1.78234-0.8906l10.56336,3.52112      c0.73701,0.24586,1.13588,1.04361,0.8906,1.78119C27.34367,20.19709,26.79464,20.57018,26.20435,20.57018z"/></g><g><path d="M84.36016,85.76765c-0.14786,0-0.29801-0.0235-0.44587-0.07278l-10.56336-3.52112      c-0.73701-0.24586-1.13589-1.04362-0.8906-1.7812c0.24644-0.73758,1.04419-1.13702,1.78234-0.89059l10.56336,3.52113      c0.73701,0.24586,1.13589,1.04361,0.89059,1.78119C85.49948,85.39457,84.95045,85.76765,84.36016,85.76765z"/><path d="M84.36016,85.76765c-0.59029,0-1.13932-0.37309-1.33646-0.96338l-3.52227-10.56336      c-0.24529-0.73758,0.15359-1.53533,0.89059-1.7812c0.73586-0.247,1.5359,0.15187,1.78234,0.8906l3.52226,10.56336      c0.24529,0.73758-0.15359,1.53533-0.89059,1.78119C84.65817,85.74416,84.50802,85.76765,84.36016,85.76765z"/></g></g><g><g><path d="M15.64099,85.76765c-0.59029,0-1.13932-0.37309-1.33647-0.96338c-0.24529-0.73758,0.15359-1.53533,0.8906-1.78119      l10.56336-3.52113c0.73701-0.24815,1.53591,0.15244,1.78234,0.89059c0.24529,0.73758-0.15359,1.53534-0.8906,1.7812      l-10.56336,3.52112C15.939,85.74416,15.78885,85.76765,15.64099,85.76765z"/><path d="M15.64099,85.76765c-0.14786,0-0.29801-0.0235-0.44587-0.07278c-0.73701-0.24586-1.13588-1.04361-0.8906-1.78119      l3.52112-10.56336c0.24643-0.73815,1.04419-1.13589,1.78234-0.8906c0.73701,0.24586,1.13588,1.04362,0.89059,1.7812      l-3.52112,10.56336C16.78031,85.39457,16.23128,85.76765,15.64099,85.76765z"/></g><g><path d="M80.83789,27.61242c-0.14786,0-0.29801-0.0235-0.44587-0.07278c-0.73701-0.24586-1.13588-1.04362-0.89059-1.78119      l3.52227-10.56336c0.24643-0.73758,1.04418-1.13703,1.78233-0.8906c0.73701,0.24586,1.13589,1.04361,0.89059,1.78119      l-3.52226,10.56336C81.97721,27.23933,81.42818,27.61242,80.83789,27.61242z"/><path d="M73.7968,20.57018c-0.59029,0-1.13932-0.37309-1.33647-0.96338c-0.24529-0.73758,0.15359-1.53533,0.8906-1.78119      l10.56336-3.52112c0.73815-0.24872,1.5359,0.15244,1.78233,0.8906c0.24529,0.73758-0.15359,1.53533-0.89059,1.78119      l-10.56336,3.52112C74.09481,20.54668,73.94466,20.57018,73.7968,20.57018z"/></g></g></g><g><g><g><path d="M32.56575,21.01834c-0.03324,0-0.06648-0.00115-0.10086-0.00344c-0.77598-0.05502-1.36054-0.72841-1.30552-1.50438      l0.7095-9.99026c0.05502-0.77598,0.71408-1.35481,1.50496-1.30495c0.77597,0.05502,1.36053,0.72841,1.30552,1.50438      l-0.7095,9.99026C33.91712,20.45212,33.29817,21.01834,32.56575,21.01834z"/><path d="M40.83901,17.59006c-0.32666,0-0.65562-0.1129-0.92154-0.34443l-7.56606-6.56199      c-0.588-0.50949-0.65104-1.39894-0.14098-1.98636c0.51006-0.58743,1.39951-0.65219,1.98636-0.14098l7.56606,6.56199      c0.588,0.50949,0.65104,1.39894,0.14098,1.98636C41.6253,17.42558,41.2333,17.59006,40.83901,17.59006z"/></g><g><path d="M66.72475,91.78806c-0.32667,0-0.65562-0.1129-0.92155-0.34444l-7.56605-6.56255      c-0.588-0.50949-0.65104-1.39893-0.14098-1.98637c0.50891-0.58685,1.39951-0.65161,1.98636-0.14098l7.56606,6.56256      c0.588,0.50948,0.65104,1.39893,0.14098,1.98637C67.51105,91.62358,67.11904,91.78806,66.72475,91.78806z"/><path d="M66.72704,91.78864c-0.03324,0-0.06647-0.00172-0.10086-0.00401c-0.77598-0.05502-1.36054-0.72898-1.30552-1.50439      l0.71064-9.99026c0.05502-0.7754,0.71638-1.35366,1.50496-1.30495c0.77598,0.05502,1.36053,0.72899,1.30552,1.50439      l-0.71064,9.99026C68.07841,91.22184,67.45947,91.78864,66.72704,91.78864z"/></g></g><g><g><path d="M19.61142,68.84461c-0.03324,0-0.06648-0.00172-0.10086-0.00401l-9.99026-0.71007      c-0.77598-0.05502-1.36054-0.72841-1.30552-1.50439s0.71179-1.35252,1.50496-1.30495l9.99026,0.71007      c0.77598,0.05502,1.36054,0.72841,1.30552,1.50439C20.96278,68.27782,20.34384,68.84461,19.61142,68.84461z"/><path d="M9.61886,68.13396c-0.32667,0-0.65563-0.1129-0.92154-0.34443c-0.588-0.50948-0.65104-1.39893-0.14098-1.98637      l6.56313-7.56662c0.50891-0.58685,1.39951-0.65162,1.98636-0.14098c0.588,0.50949,0.65104,1.39893,0.14098,1.98636      l-6.56313,7.56663C10.40515,67.96949,10.01315,68.13396,9.61886,68.13396z"/></g><g><path d="M83.81686,42.24822c-0.32667,0-0.65562-0.1129-0.92155-0.34443c-0.588-0.50948-0.65104-1.39893-0.14098-1.98636      l6.56199-7.56606c0.51006-0.58685,1.39951-0.65276,1.98636-0.14098c0.58801,0.50948,0.65105,1.39893,0.14098,1.98636      l-6.56198,7.56606C84.60316,42.08374,84.21115,42.24822,83.81686,42.24822z"/><path d="M90.38114,34.68217c-0.03324,0-0.06648-0.00114-0.10087-0.00344l-9.99026-0.71007      c-0.77598-0.05502-1.36053-0.72841-1.30552-1.50438c0.05502-0.77598,0.71294-1.35538,1.50496-1.30495l9.99026,0.71007      c0.77598,0.05502,1.36053,0.72841,1.30552,1.50438C91.73251,34.11595,91.11356,34.68217,90.38114,34.68217z"/></g></g></g><g><g><g><path d="M67.43539,21.01891c-0.73242,0-1.35136-0.5668-1.40409-1.30896l-0.71064-9.99026      c-0.05502-0.7754,0.52954-1.44937,1.30552-1.50438c0.76681-0.05101,1.44994,0.52897,1.50496,1.30495l0.71064,9.99026      c0.05502,0.7754-0.52954,1.44937-1.30552,1.50438C67.50302,21.01719,67.46864,21.01891,67.43539,21.01891z"/><path d="M59.16099,17.59006c-0.39429,0-0.78629-0.16448-1.06482-0.48541c-0.51006-0.58743-0.44702-1.47688,0.14098-1.98636      l7.56605-6.56199c0.58685-0.5112,1.47746-0.44644,1.98637,0.14098c0.51006,0.58743,0.44701,1.47688-0.14098,1.98636      l-7.56606,6.56199C59.81662,17.47716,59.48766,17.59006,59.16099,17.59006z"/></g><g><path d="M33.27525,91.78806c-0.39429,0-0.78629-0.16448-1.06482-0.48541c-0.51006-0.58743-0.44702-1.47688,0.14098-1.98637      l7.56606-6.56256c0.58685-0.51063,1.47745-0.44587,1.98636,0.14098c0.51006,0.58743,0.44702,1.47688-0.14098,1.98637      l-7.56606,6.56255C33.93087,91.67516,33.60191,91.78806,33.27525,91.78806z"/><path d="M33.27295,91.78806c-0.73242,0-1.35137-0.56622-1.40409-1.30839l-0.7095-9.99026      c-0.05502-0.77598,0.52954-1.44936,1.30552-1.50439c0.78973-0.05043,1.44994,0.52898,1.50496,1.30495l0.7095,9.99026      c0.05502,0.77598-0.52954,1.44937-1.30552,1.50439C33.33944,91.78692,33.30619,91.78806,33.27295,91.78806z"/></g></g><g><g><path d="M80.38858,68.84461c-0.73241,0-1.35136-0.5668-1.40409-1.30896c-0.05502-0.77598,0.52954-1.44937,1.30552-1.50439      l9.99026-0.71007c0.79546-0.04929,1.44994,0.52897,1.50496,1.30495s-0.52954,1.44936-1.30552,1.50439l-9.99026,0.71007      C80.45506,68.84289,80.42182,68.84461,80.38858,68.84461z"/><path d="M90.38114,68.13396c-0.39429,0-0.78629-0.16447-1.06482-0.48541l-6.56199-7.56663      c-0.51006-0.58743-0.44701-1.47688,0.14098-1.98693c0.58685-0.51006,1.47746-0.4453,1.98637,0.14156l6.56198,7.56662      c0.51006,0.58743,0.44702,1.47688-0.14098,1.98694C91.03677,68.02106,90.70781,68.13396,90.38114,68.13396z"/></g><g><path d="M16.18428,42.24822c-0.39429,0-0.78629-0.16448-1.06482-0.48541l-6.56313-7.56606      c-0.51006-0.58743-0.44702-1.47688,0.14098-1.98636c0.58685-0.51178,1.47745-0.44587,1.98636,0.14098l6.56313,7.56606      c0.51006,0.58743,0.44702,1.47688-0.14098,1.98636C16.83991,42.13532,16.51095,42.24822,16.18428,42.24822z"/><path d="M9.61886,34.68217c-0.73242,0-1.35137-0.56622-1.40409-1.30838c-0.05502-0.77597,0.52954-1.44937,1.30552-1.50438      l9.99026-0.71007c0.79432-0.05158,1.44994,0.52897,1.50496,1.30495c0.05502,0.77597-0.52954,1.44937-1.30552,1.50438      l-9.99026,0.71007C9.68534,34.68102,9.6521,34.68217,9.61886,34.68217z"/></g></g></g><path d="M50.00057,80.88026c-17.02792,0-30.88202-13.85295-30.88202-30.8803c0-17.02792,13.8541-30.88087,30.88202-30.88087   s30.88087,13.85295,30.88087,30.88087C80.88145,67.02731,67.0285,80.88026,50.00057,80.88026z M50.00057,21.9353   c-15.47482,0-28.06466,12.58984-28.06466,28.06466c0,15.47425,12.58984,28.06409,28.06466,28.06409   s28.06352-12.58984,28.06352-28.06409C78.06409,34.52514,65.4754,21.9353,50.00057,21.9353z"/><path d="M26.34762,47.09034c-0.08367,0-0.16849-0.00745-0.25446-0.0235c-0.76451-0.13926-1.27228-0.87283-1.13244-1.63792   c1.74795-9.56904,8.9392-17.41133,18.32198-19.97938c0.74274-0.20574,1.52444,0.23554,1.72961,0.9863   c0.20517,0.75019-0.23612,1.52502-0.98688,1.73019c-8.34432,2.2838-14.74011,9.25842-16.29321,17.76837   C27.6073,46.61409,27.01471,47.09034,26.34762,47.09034z"/></g><text x="0" y="115" fill="#000000" font-size="5px" font-weight="bold" font-family="'Helvetica Neue', Helvetica, Arial-Unicode, Arial, Sans-serif">Created by Grégory Montigny</text><text x="0" y="120" fill="#000000" font-size="5px" font-weight="bold" font-family="'Helvetica Neue', Helvetica, Arial-Unicode, Arial, Sans-serif">from the Noun Project</text></svg>