<svg xmlns="http://www.w3.org/2000/svg" xmlns:xlink="http://www.w3.org/1999/xlink" version="1.1" x="0px" y="0px" viewBox="0 0 100 125" enable-background="new 0 0 100 100" xml:space="preserve"><g><g><path d="M90.775,17.644c0,0-1.624,0.677-3.384,3.518c-1.623,2.841-7.713,9.743-7.713,9.743s-8.795,10.69-12.042,12.584    c-3.384,2.03-9.066,4.871-15.426,6.089c-6.225,1.354-8.39,2.301-8.39,2.301s-2.165,0.676-2.842,6.358    c-0.812-1.895-2.571-5.142-5.547-6.358c0,0,3.924,2.977,4.33,7.035c-0.542-0.27-1.354-0.541-2.707-1.353    c0,0-6.225,7.849-7.577,24.356c0,0,6.495-1.623,2.165,3.383c0,0,5.954-0.271,0.135,3.654c0,0,6.496,0-0.27,4.059    c0,0,3.924-0.812,5.954,1.083c0,0,1.218,0.676,4.33,0s4.601-1.083,8.119,1.083c3.383,2.3,5.684,0.676,5.684,0.676    s7.307,0.137,8.524,0.947c1.218,0.812,2.164,0.947,2.164,0.947s-3.517,0.541-6.765-0.676l-3.924,0.405l-3.789,0.406    c0,0-5.007,0.136-6.631-1.219H37.19l-7.713,0.271c0,0-9.066,2.571-11.638,0.947c-2.706-1.623-1.759-4.061,0-4.194    c0,0-3.924-2.301,0.677-4.061l0.812-11.636c0,0,0.406-4.466,3.519-10.42c3.247-5.954,6.901-10.149,6.901-10.149    s2.436-2.57,2.436-3.788c0,0-1.894-2.03-1.894-3.925c0,0-0.271-1.759,2.977-1.353c0,0,3.383-0.135,2.301-2.571    c-0.947-2.435-3.112-4.736-3.112-4.736s-1.489-3.654,1.894-3.924c3.519-0.136,6.631-2.842,6.631-2.842s4.06-11.232,11.773-15.291    c7.713-4.06,25.439-11.638,27.604-12.45l1.083-0.541c0,0-2.03-4.736,0-5.006c0,0,11.366,10.689,12.719,16.644    C94.157,17.644,94.699,19.809,90.775,17.644z M37.326,42.948l1.894-3.789l-2.841,0.677l0.541,3.112H37.326z M40.979,58.51    c0,0,0-0.137,0-0.272c0.406,0.947,0.542,1.49,0.542,1.49l-1.624,0.134c0-0.27,0-0.677-0.135-0.947    C40.979,59.185,40.979,58.51,40.979,58.51z"/></g></g><text x="0" y="115" fill="#000000" font-size="5px" font-weight="bold" font-family="'Helvetica Neue', Helvetica, Arial-Unicode, Arial, Sans-serif">Created by Jade Griffin</text><text x="0" y="120" fill="#000000" font-size="5px" font-weight="bold" font-family="'Helvetica Neue', Helvetica, Arial-Unicode, Arial, Sans-serif">from the Noun Project</text></svg>