<svg xmlns="http://www.w3.org/2000/svg" xmlns:xlink="http://www.w3.org/1999/xlink" version="1.1" x="0px" y="0px" viewBox="0 0 100 125" enable-background="new 0 0 100 100" xml:space="preserve"><g><path fill="none" d="M35.833,32.381c0.192,0.193,0.391,0.288,0.582,0.254c0.092-0.016,0.176-0.061,0.25-0.131   c0.919,2.858,2.672,5.707,4.886,7.425c1.304,1.013,2.769,1.634,4.317,1.634c1.537,0,2.994-0.614,4.291-1.616   c2.225-1.717,3.988-4.574,4.91-7.443c0.076,0.071,0.158,0.116,0.25,0.131c0.166,0.029,0.336-0.038,0.502-0.178   c0.42-0.355,0.813-1.184,0.992-2.191c0.236-1.313,0.025-2.465-0.469-2.695c-0.035-0.017-0.072-0.03-0.113-0.038l-1.121,1.082   l-13.827-7.117c-4.521-0.419-5.239,5.62-5.294,6.159c-0.002,0.025-0.004,0.039-0.004,0.039h-0.001   c-0.16-0.13-0.323-0.19-0.48-0.163c-0.069,0.012-0.133,0.041-0.192,0.083c-0.438,0.314-0.612,1.409-0.391,2.649   C35.091,31.208,35.445,31.994,35.833,32.381z"/><path fill="none" d="M73.307,53.967H17.822c-1.913,0-3.468,1.557-3.468,3.469l4.621,26.778c0.003,1.95,1.559,3.508,3.471,3.508   h46.238c1.912,0,3.467-1.558,3.467-3.469l4.627-26.856C76.773,55.523,75.219,53.967,73.307,53.967z M45.564,72.045   c-0.918,0-1.663-0.743-1.663-1.664c0-0.916,0.745-1.661,1.663-1.661c0.919,0,1.663,0.745,1.663,1.661   C47.228,71.302,46.484,72.045,45.564,72.045z"/><path fill="none" d="M52.436,40.726c-0.007-0.003-0.014-0.007-0.022-0.011c-1.126,1.112-2.38,1.992-3.717,2.522   c-0.908,0.361-1.855,0.559-2.829,0.559c-0.973,0-1.92-0.198-2.828-0.559c-1.349-0.535-2.612-1.427-3.749-2.552h-0.001   c0,1.386-1.059,2.176-1.777,2.552c-0.086,0.045-0.167,0.083-0.24,0.118c-0.18,0.08-0.316,0.13-0.376,0.149   c0.043,0.356,0.2,0.699,0.454,1.024c1.189,1.52,4.531,3.715,8.468,3.715c3.939,0,7.278-2.196,8.47-3.715   c0.252-0.325,0.41-0.667,0.453-1.024c0-0.011,0-0.021,0-0.029C54.256,43.295,52.464,42.514,52.436,40.726z"/><path fill="none" d="M75.565,17.79c-6.066,0-11.002,4.935-11.002,11s4.936,11,11.002,11c6.065,0,11-4.935,11-11   S81.631,17.79,75.565,17.79z M81.85,35.22c-0.194,0.19-0.447,0.285-0.699,0.285c-0.26,0-0.519-0.101-0.715-0.301l-5.586-5.715   c-0.027-0.029-0.039-0.066-0.063-0.098c-0.055-0.071-0.111-0.14-0.146-0.224c-0.034-0.083-0.042-0.172-0.053-0.261   c-0.005-0.04-0.023-0.075-0.023-0.116v-4.836c0-0.552,0.448-1,1-1s1,0.448,1,1v4.428l5.301,5.424   C82.252,34.201,82.244,34.834,81.85,35.22z"/><path fill="#000000" d="M71.803,88.939H19.325c-0.511,0-0.925,0.414-0.925,0.926c0,0.511,0.415,0.924,0.925,0.924h52.478   c0.514,0,0.926-0.413,0.926-0.924C72.729,89.354,72.316,88.939,71.803,88.939z"/><path fill="#000000" d="M73.307,53.505h-3.785c0.023,0.077,0.049,0.149,0.074,0.229H22.04c0.024-0.08,0.049-0.152,0.075-0.229   h-4.293c-2.167,0-3.93,1.763-3.927,3.97l4.621,26.778c0,2.169,1.763,3.93,3.93,3.93h46.238c2.166,0,3.93-1.761,3.926-3.892   l4.629-26.855C77.238,55.268,75.475,53.505,73.307,53.505z M72.15,84.253c0,1.911-1.555,3.469-3.467,3.469H22.445   c-1.912,0-3.468-1.558-3.471-3.508l-4.621-26.778c0-1.912,1.556-3.469,3.468-3.469h55.485c1.912,0,3.467,1.557,3.471,3.43   L72.15,84.253z"/><circle fill="#000000" cx="45.564" cy="70.382" r="1.663"/><path fill="#000000" d="M69.596,53.734c-0.025-0.08-0.051-0.152-0.074-0.229c-2.781-8.709-7.602-9.034-8.658-9.281   c-0.129-0.03-0.256-0.057-0.387-0.081C57.176,41.091,59.43,28.35,59.43,28.35c0-19.42-13.137-17.509-13.137-17.509   c-0.159-0.008-0.318-0.015-0.475-0.02c-0.158,0.005-0.316,0.012-0.477,0.02c0,0-13.136-1.911-13.136,17.509   c0,0,2.255,12.74-1.048,15.792c-0.13,0.024-0.257,0.051-0.383,0.081c-1.06,0.248-5.879,0.572-8.66,9.281   c-0.025,0.077-0.051,0.149-0.075,0.229H69.596z M54.74,43.504c-0.043,0.356-0.201,0.699-0.453,1.024   c-1.191,1.52-4.53,3.715-8.47,3.715c-3.938,0-7.279-2.196-8.468-3.715c-0.253-0.325-0.411-0.667-0.454-1.024   c0.06-0.02,0.196-0.069,0.376-0.149c0.074-0.034,0.154-0.072,0.24-0.118c0.718-0.376,1.777-1.167,1.777-2.552h0.001   c1.137,1.125,2.4,2.017,3.749,2.552c0.908,0.361,1.855,0.559,2.828,0.559c0.974,0,1.921-0.198,2.829-0.559   c1.337-0.53,2.591-1.41,3.717-2.522c0.009,0.004,0.016,0.008,0.022,0.011c0.028,1.788,1.82,2.57,2.305,2.749   C54.74,43.483,54.74,43.493,54.74,43.504z M35.313,27.616c0.06-0.042,0.123-0.071,0.192-0.083c0.157-0.027,0.32,0.032,0.48,0.163   h0.001c0,0,0.001-0.014,0.004-0.039c0.056-0.539,0.773-6.578,5.294-6.159l13.827,7.117l1.121-1.082   c0.041,0.008,0.078,0.021,0.113,0.038c0.494,0.23,0.705,1.382,0.469,2.695c-0.18,1.008-0.572,1.836-0.992,2.191   c-0.166,0.141-0.336,0.208-0.502,0.178c-0.092-0.016-0.174-0.061-0.25-0.131c-0.922,2.869-2.686,5.727-4.91,7.443   c-1.297,1.002-2.754,1.616-4.291,1.616c-1.548,0-3.013-0.621-4.317-1.634c-2.214-1.719-3.967-4.567-4.886-7.425   c-0.075,0.071-0.159,0.116-0.25,0.131c-0.191,0.033-0.39-0.061-0.582-0.254c-0.388-0.387-0.743-1.173-0.912-2.116   C34.7,29.025,34.875,27.93,35.313,27.616z"/><path fill="#000000" d="M75.565,15.79c-7.169,0-13.002,5.832-13.002,13s5.833,13,13.002,13s13-5.832,13-13   S82.734,15.79,75.565,15.79z M75.565,39.79c-6.066,0-11.002-4.935-11.002-11s4.936-11,11.002-11c6.065,0,11,4.935,11,11   S81.631,39.79,75.565,39.79z"/><path fill="#000000" d="M76.565,28.382v-4.428c0-0.552-0.448-1-1-1s-1,0.448-1,1v4.836c0,0.041,0.019,0.076,0.023,0.116   c0.011,0.089,0.019,0.177,0.053,0.261c0.034,0.084,0.091,0.153,0.146,0.224c0.023,0.032,0.035,0.069,0.063,0.098l5.586,5.715   c0.196,0.201,0.455,0.301,0.715,0.301c0.252,0,0.505-0.095,0.699-0.285c0.395-0.386,0.402-1.02,0.017-1.414L76.565,28.382z"/></g><text x="0" y="115" fill="#000000" font-size="5px" font-weight="bold" font-family="'Helvetica Neue', Helvetica, Arial-Unicode, Arial, Sans-serif">Created by Wilson Joseph</text><text x="0" y="120" fill="#000000" font-size="5px" font-weight="bold" font-family="'Helvetica Neue', Helvetica, Arial-Unicode, Arial, Sans-serif">from the Noun Project</text></svg>