<?xml version="1.0" encoding="iso-8859-1"?>
<!-- Generator: Adobe Illustrator 19.0.0, SVG Export Plug-In . SVG Version: 6.00 Build 0)  -->
<svg version="1.1" id="Capa_1" xmlns="http://www.w3.org/2000/svg" xmlns:xlink="http://www.w3.org/1999/xlink" x="0px" y="0px"
	 viewBox="0 0 58 58" style="enable-background:new 0 0 58 58;" xml:space="preserve">
<g>
	<g>
		<path d="M29,0C13.009,0,0,13.01,0,29s13.009,29,29,29s29-13.01,29-29S44.991,0,29,0z M29,56C14.112,56,2,43.888,2,29
			S14.112,2,29,2s27,12.112,27,27S43.888,56,29,56z"/>
		<path d="M46,16c0.552,0,1-0.447,1-1s-0.448-1-1-1c-8.485,0-15.429,6.644-15.949,15H27.95C27.429,20.644,20.485,14,12,14
			c-0.552,0-1,0.447-1,1s0.448,1,1,1c7.382,0,13.433,5.747,13.949,13H19c-0.552,0-1,0.447-1,1s0.448,1,1,1h6.949
			C25.433,38.253,19.382,44,12,44c-0.552,0-1,0.447-1,1s0.448,1,1,1c8.485,0,15.429-6.644,15.949-15h2.101
			c0.52,8.356,7.465,15,15.949,15c0.552,0,1-0.447,1-1s-0.448-1-1-1c-7.382,0-13.433-5.747-13.949-13H39c0.552,0,1-0.447,1-1
			s-0.448-1-1-1h-6.949C32.567,21.747,38.618,16,46,16z"/>
	</g>
</g>
<g>
</g>
<g>
</g>
<g>
</g>
<g>
</g>
<g>
</g>
<g>
</g>
<g>
</g>
<g>
</g>
<g>
</g>
<g>
</g>
<g>
</g>
<g>
</g>
<g>
</g>
<g>
</g>
<g>
</g>
</svg>
