<?xml version="1.0" encoding="iso-8859-1"?>
<!-- Generator: Adobe Illustrator 19.0.0, SVG Export Plug-In . SVG Version: 6.00 Build 0)  -->
<svg version="1.1" id="Capa_1" xmlns="http://www.w3.org/2000/svg" xmlns:xlink="http://www.w3.org/1999/xlink" x="0px" y="0px"
	 viewBox="0 0 58 58" style="enable-background:new 0 0 58 58;" xml:space="preserve">
<g>
	<g>
		<path d="M29,0C13.01,0,0,13.01,0,29s13.01,29,29,29s29-13.01,29-29S44.99,0,29,0z M29,56C14.112,56,2,43.888,2,29S14.112,2,29,2
			s27,12.112,27,27S43.888,56,29,56z"/>
		<path d="M33.101,14c-0.553,0-1,0.447-1,1s0.447,1,1,1h7.485L29.565,27.021l-4.243-4.243c-0.391-0.391-1.023-0.391-1.414,0
			s-0.391,1.023,0,1.414l4.243,4.243L14.009,42.577c-0.391,0.391-0.391,1.023,0,1.414c0.195,0.195,0.451,0.293,0.707,0.293
			s0.512-0.098,0.707-0.293l14.142-14.142l4.243,4.243c0.195,0.195,0.451,0.293,0.707,0.293s0.512-0.098,0.707-0.293
			c0.391-0.391,0.391-1.023,0-1.414l-4.243-4.243L42,17.414v7.485c0,0.553,0.447,1,1,1s1-0.447,1-1V14H33.101z"/>
	</g>
</g>
<g>
</g>
<g>
</g>
<g>
</g>
<g>
</g>
<g>
</g>
<g>
</g>
<g>
</g>
<g>
</g>
<g>
</g>
<g>
</g>
<g>
</g>
<g>
</g>
<g>
</g>
<g>
</g>
<g>
</g>
</svg>
