<svg xmlns="http://www.w3.org/2000/svg" xmlns:xlink="http://www.w3.org/1999/xlink" version="1.1" viewBox="0 0 90.703 108.81125" overflow="visible" enable-background="new 0 0 90.703 87.049" xml:space="preserve" x="0px" y="0px"><g><g><ellipse fill="none" cx="27.949" cy="38.226" rx="20.083" ry="19.583"/><path d="M47.532,38.226c0,10.522-8.785,19.083-19.583,19.083c-10.798,0-19.584-8.562-19.584-19.083s8.785-19.083,19.583-19.083    C38.746,19.143,47.532,27.704,47.532,38.226z M27.949,18.143c-11.35,0-20.583,9.009-20.583,20.083    c0,11.074,9.233,20.083,20.583,20.083c11.35,0,20.583-9.011,20.583-20.083C48.532,27.152,39.298,18.143,27.949,18.143z"/></g><g><path d="M88.365,38.059c0,10.523-8.785,19.084-19.584,19.084s-19.583-8.562-19.583-19.084s8.784-19.083,19.583-19.083    S88.365,27.537,88.365,38.059z M68.781,17.976c-11.35,0-20.583,9.009-20.583,20.083c0,11.075,9.233,20.084,20.583,20.084    s20.584-9.012,20.584-20.084C89.365,26.985,80.131,17.976,68.781,17.976z"/></g></g><g><circle cx="15.865" cy="38.809" r="6.833"/></g><g><circle cx="56.865" cy="38.809" r="6.833"/></g><g><path fill="none" d="M9.198,73.476C7.531,76.81,6.365,80.81,9.531,83.81c4.333,4.166,10.833-1,14.667-3   c10.833-5.334,20.5-11.834,32.667-13.5c6.833-1,13.833-1,20.667-1c3.333,0,6.5,0.334,9.5,2.334c0.833,0.5,1.5,1,2.166,2"/><path d="M7.798,72.958C5.373,78.176,5.296,83.83,11.15,86.515c5.152,2.362,12.53-3.746,16.755-5.908   c8.415-4.306,16.516-9.041,25.808-11.226c5.248-1.233,10.812-1.407,16.174-1.538c5.915-0.144,13.872-1.24,18.174,3.766   c1.252,1.459,3.533-0.467,2.275-1.932c-4.652-5.414-11.766-4.883-18.284-4.834c-8.028,0.062-16.049,0.559-23.761,2.928   c-7.091,2.182-13.62,5.912-20.151,9.353c-2.938,1.547-5.851,3.081-8.737,4.721c-2.001,1.138-4.096,2.054-6.443,2.028   c-6.441-0.064-3.502-7.422-2.361-9.877C11.411,72.243,8.604,71.228,7.798,72.958L7.798,72.958z"/></g><g><path fill="none" d="M1.532,74.81c-0.5-2.834,2-4.334,4.333-5"/><path d="M3.001,74.55c-0.267-1.865,1.586-2.814,3.123-3.271c0.779-0.23,1.364-0.856,1.21-1.729   c-0.129-0.73-0.947-1.443-1.729-1.211c-3.175,0.945-6.07,3.04-5.544,6.729C0.334,76.976,3.272,76.45,3.001,74.55L3.001,74.55z"/></g><g><path fill="none" d="M14.365,13.642c6.667,0,13.667-0.667,20,1.5c4.167,1.667,7.333,4.333,10.167,7.667"/><path d="M14.625,15.112c6.084-0.046,12.104-0.396,18.091,0.952c4.763,1.071,8.608,4.512,11.743,8.067   c0.701,0.795,0.667-2.051,0.146-2.643c-3.371-3.823-7.136-6.831-12.076-8.313c-5.862-1.76-12.403-1.047-18.422-1.002   C13.359,12.178,13.689,15.119,14.625,15.112L14.625,15.112z"/></g><g><path fill="none" d="M47.365,25.976c3.333-1,6.333-8.5,7.833-11.167c3-4.667,7-12.833,13.833-11.833   c9,1.333,8.834,13.833,16.667,16.667"/><path d="M47.885,28.922c3.906-1.747,5.776-6.539,7.562-10.141c2.312-4.661,5.556-10.43,10.547-12.538   c5.72-2.417,9.557,3.558,11.855,7.648c2.004,3.565,4.145,6.977,8.034,8.648c1.521,0.653,1.253-5.095-0.375-5.793   C77.09,13.131,77.391-1.022,66.076,0.058c-4.703,0.449-7.881,5.853-10.118,9.4c-2.536,4.019-4.582,11.544-9.115,13.57   C45.079,23.818,46.622,29.487,47.885,28.922L47.885,28.922z"/></g><text x="0" y="102.049" fill="#000000" font-size="5px" font-weight="bold" font-family="'Helvetica Neue', Helvetica, Arial-Unicode, Arial, Sans-serif">Created by Neil Fisher</text><text x="0" y="107.049" fill="#000000" font-size="5px" font-weight="bold" font-family="'Helvetica Neue', Helvetica, Arial-Unicode, Arial, Sans-serif">from the Noun Project</text></svg>